<svg width="26" height="26" viewBox="0 0 26 26" fill="none" xmlns="http://www.w3.org/2000/svg">
<path fill-rule="evenodd" clip-rule="evenodd" d="M16.0108 3.96633C16.1728 4.02025 16.3227 4.10556 16.4517 4.21739C16.5808 4.32922 16.6865 4.46539 16.7629 4.6181C16.8394 4.77082 16.8849 4.93709 16.8971 5.10743C16.9092 5.27776 16.8877 5.44882 16.8337 5.61083L11.6337 21.2108C11.5247 21.538 11.2903 21.8085 10.9819 21.9629C10.6735 22.1172 10.3164 22.1427 9.9892 22.0337C9.662 21.9248 9.39149 21.6903 9.23716 21.3819C9.08284 21.0735 9.05735 20.7164 9.1663 20.3892L14.3663 4.78923C14.4202 4.6272 14.5055 4.47737 14.6174 4.34832C14.7292 4.21926 14.8653 4.11351 15.0181 4.03709C15.1708 3.96067 15.3371 3.91509 15.5074 3.90295C15.6777 3.89081 15.8488 3.91235 16.0108 3.96633ZM7.4191 8.18093C7.66281 8.42472 7.79972 8.75532 7.79972 9.10003C7.79972 9.44475 7.66281 9.77535 7.4191 10.0191L4.4382 13L7.4191 15.9809C7.54326 16.1009 7.6423 16.2443 7.71043 16.4029C7.77856 16.5615 7.81443 16.7321 7.81593 16.9047C7.81743 17.0773 7.78453 17.2485 7.71917 17.4083C7.6538 17.568 7.55727 17.7132 7.43521 17.8352C7.31315 17.9573 7.16801 18.0538 7.00824 18.1192C6.84847 18.1846 6.67729 18.2175 6.50468 18.216C6.33207 18.2145 6.16148 18.1786 6.00287 18.1105C5.84427 18.0423 5.70082 17.9433 5.5809 17.8191L1.6809 13.9191C1.43719 13.6753 1.30028 13.3447 1.30028 13C1.30028 12.6553 1.43719 12.3247 1.6809 12.0809L5.5809 8.18093C5.82469 7.93722 6.15529 7.80031 6.5 7.80031C6.84471 7.80031 7.17531 7.93722 7.4191 8.18093ZM18.5809 8.18093C18.8247 7.93722 19.1553 7.80031 19.5 7.80031C19.8447 7.80031 20.1753 7.93722 20.4191 8.18093L24.3191 12.0809C24.5628 12.3247 24.6997 12.6553 24.6997 13C24.6997 13.3447 24.5628 13.6753 24.3191 13.9191L20.4191 17.8191C20.2992 17.9433 20.1557 18.0423 19.9971 18.1105C19.8385 18.1786 19.6679 18.2145 19.4953 18.216C19.3227 18.2175 19.1515 18.1846 18.9918 18.1192C18.832 18.0538 18.6868 17.9573 18.5648 17.8352C18.4427 17.7132 18.3462 17.568 18.2808 17.4083C18.2155 17.2485 18.1826 17.0773 18.1841 16.9047C18.1856 16.7321 18.2214 16.5615 18.2896 16.4029C18.3577 16.2443 18.4567 16.1009 18.5809 15.9809L21.5618 13L18.5809 10.0191C18.3372 9.77535 18.2003 9.44475 18.2003 9.10003C18.2003 8.75532 18.3372 8.42472 18.5809 8.18093Z" fill="white"/>
</svg>
